# xmcd CD database file
# Copyright (C) 1996 Ti Kan
#
# Track frame offsets:
#	150
#	20832
#	39939
#	60034
#	84506
#	105344
#	126696
#	143581
#	161226
#	181368
#	203646
#	218554
#	235646
#	253261
#	271533
#	291988
# Disc length: 4117 seconds
#
# Revision: 1
# Processed by: cddbd v1.4b42PL0 Copyright (c) Steve Scherf et al.
# Submitted via: CDCOPY 4.900
#
DISCID=da101310
DTITLE=陳慧嫻 - 32 Best of Songs Disc 1
DYEAR=1900
DGENRE=
TTITLE0=二人時間
TTITLE1=奇妙旅程
TTITLE2=禮物
TTITLE3=緣了就是完
TTITLE4=留戀
TTITLE5=心滿意足
TTITLE6=今天夜媮`下雨
TTITLE7=飄雪
TTITLE8=夜機
TTITLE9=千千闕歌
TTITLE10=地球大追蹤
TTITLE11=傻女
TTITLE12=花店
TTITLE13=玻璃窗的愛
TTITLE14=與淚抱擁
TTITLE15=跳舞街
EXTD=
EXTT0=
EXTT1=
EXTT2=
EXTT3=
EXTT4=
EXTT5=
EXTT6=
EXTT7=
EXTT8=
EXTT9=
EXTT10=
EXTT11=
EXTT12=
EXTT13=
EXTT14=
EXTT15=
PLAYORDER=
